Patient4_TMGait_0pt7_01_right_20_GRF.mot
version=1
nRows=45
nColumns=19
inDegrees=no
endheader
time	F1x	F1y	F1z	M1x	M1y	M1z	F2x	F2y	F2z	M2x	M2y	M2z	EC1x	EC1y	EC1z	EC2x	EC2y	EC2z
22.41	-3.1726	755.8941	78.213	-261.5305	-77.4601	815.2926	-6.4325	22.9444	16.9424	1.9729	-9.8154	34.6831	-0.0592	0.0182	-0.0073	-0.0462	0.0165	0.9585
22.4214	-3.3036	749.5587	74.5401	-257.1622	-75.1997	805.3559	-4.5406	16.9798	11.6106	1.8696	-6.5649	25.2702	-0.0592	0.0182	-0.0073	-0.0462	0.0165	0.9585
22.4327	-3.0273	741.599	71.4893	-252.2324	-73.1295	793.6693	-2.9666	11.9674	7.0884	1.8012	-3.817	17.3956	-0.0592	0.0182	-0.0073	-0.0462	0.0165	0.9585
22.4441	-2.28	732.6512	69.2459	-247.0866	-71.3589	780.9767	-1.7611	8.1887	3.6326	1.7684	-1.729	11.4648	-0.0592	0.0182	-0.0073	-0.0462	0.0165	0.9585
22.4554	-1.1007	723.5414	67.8781	-242.082	-69.9881	768.1405	-0.96034	5.6458	1.244	1.772	-0.29106	7.4721	-0.0592	0.0182	-0.0073	-0.0462	0.0165	0.9585
22.4668	0.42738	715.0945	67.2703	-237.5424	-68.9906	755.9836	-0.46898	4.1304	-0.23955	1.7986	0.59722	5.0734	-0.0592	0.0182	-0.0073	-0.0462	0.0165	0.9585
22.4781	2.1984	708.0086	67.2838	-233.7249	-68.329	745.1902	-0.25476	3.3775	-1.0325	1.8309	1.0849	3.8705	-0.0592	0.0182	-0.0073	-0.0462	0.0165	0.9585
22.4895	4.1491	702.7285	67.6874	-230.7851	-67.8581	736.1495	-0.20147	3.0766	-1.347	1.8389	1.2968	3.3828	-0.0592	0.0182	-0.0073	-0.0462	0.0165	0.9585
22.5009	6.2907	699.458	68.35	-228.7727	-67.4964	729.0152	-0.28776	2.963	-1.3721	1.7893	1.3576	3.236	-0.0592	0.0182	-0.0073	-0.0462	0.0165	0.9585
22.5122	8.6817	698.1509	69.1474	-227.6445	-67.1448	723.6675	-0.42156	2.7613	-1.2444	1.6335	1.333	3.0127	-0.0592	0.0182	-0.0073	-0.0462	0.0165	0.9585
22.5236	11.3705	698.6155	69.9979	-227.2979	-66.7338	719.8575	-0.60284	2.2702	-1.0711	1.3259	1.2912	2.4477	-0.0592	0.0182	-0.0073	-0.0462	0.0165	0.9585
22.5349	14.428	700.5877	70.8387	-227.6073	-66.1976	717.2957	-0.75527	1.2677	-0.90343	0.80658	1.2409	1.2329	-0.0592	0.0182	-0.0073	-0.0462	0.0165	0.9585
22.5463	17.855	703.8249	71.5985	-228.4596	-65.4684	715.7419	-0.87438	-0.357	-0.77188	0.036579	1.1919	-0.76732	-0.0592	0.0182	-0.0073	-0.0462	0.0165	0.9585
22.5576	21.6608	708.1596	72.2662	-229.7697	-64.5255	715.0493	-0.86189	-2.6783	-0.67075	-1.0063	1.0983	-3.6761	-0.0592	0.0182	-0.0073	-0.0462	0.0165	0.9585
22.569	25.814	713.4888	72.8176	-231.4804	-63.336	715.1541	-0.6836	-5.5878	-0.57684	-2.2805	0.91236	-7.3373	-0.0592	0.0182	-0.0073	-0.0462	0.0165	0.9585
22.5804	30.2578	719.7283	73.2968	-233.5412	-61.9425	715.995	-0.21691	-8.7932	-0.45181	-3.6584	0.54562	-11.3883	-0.0592	0.0182	-0.0073	-0.0462	0.0165	0.9585
22.5917	34.8948	726.7408	73.728	-235.8834	-60.3852	717.4698	0.59677	-11.6274	-0.24756	-4.8636	-0.08391	-14.9695	-0.0592	0.0182	-0.0073	-0.0462	0.0165	0.9585
22.6031	39.5908	734.2096	74.1629	-238.3783	-58.7481	719.3066	1.861	-13.0158	0.094504	-5.4363	-1.0771	-16.731	-0.0592	0.0182	-0.0073	-0.0462	0.0165	0.9585
22.6144	44.1961	741.5745	74.6255	-240.8196	-57.0985	721.0186	3.5825	-11.2872	0.62642	-4.6743	-2.4939	-14.5276	-0.0592	0.0182	-0.0073	-0.0462	0.0165	0.9585
22.6258	48.6181	748.0513	75.0999	-242.9319	-55.4549	721.902	5.7243	-4.2215	1.3943	-1.6355	-4.3523	-5.5365	-0.0592	0.0182	-0.0073	-0.0462	0.0165	0.9585
22.6371	52.7908	752.7042	75.539	-244.3928	-53.8016	721.1203	8.0497	10.9563	2.4031	4.8478	-6.5389	13.7902	-0.0592	0.0182	-0.0073	-0.0462	0.0165	0.9585
22.6485	56.6752	754.5194	75.7898	-244.8613	-52.0265	717.7781	10.1368	37.2242	3.5922	16.0338	-8.7699	47.2315	-0.0592	0.0182	-0.0073	-0.0462	0.0165	0.9585
22.6599	60.2248	752.3234	75.6686	-243.9534	-50.0056	710.8694	11.2064	77.2677	4.8083	33.0414	-10.4951	98.2122	-0.0592	0.0182	-0.0073	-0.0462	0.0165	0.9585
22.6712	63.3325	744.6631	74.8865	-241.2161	-47.5432	699.1483	10.1365	132.4327	5.7447	56.4173	-10.824	168.4421	-0.0592	0.0182	-0.0073	-0.0462	0.0165	0.9585
22.6826	65.8434	729.8036	73.1539	-236.1234	-44.4682	681.1264	5.3654	201.4512	6.0117	85.5822	-8.6077	256.3338	-0.0592	0.0182	-0.0073	-0.0462	0.0165	0.9585
22.6939	67.4794	705.9173	70.1691	-228.1335	-40.6352	655.2504	-4.3381	278.9175	5.1611	118.2027	-2.7628	354.998	-0.0592	0.0182	-0.0073	-0.0462	0.0165	0.9585
22.7053	67.8981	671.4702	65.7445	-216.8007	-36.0283	620.2254	-18.1128	355.2732	2.2414	150.199	7.3694	452.2158	-0.0592	0.0182	-0.0073	-0.0462	0.0165	0.9585
22.7166	66.6991	625.7526	59.9271	-201.9283	-30.8538	575.5007	-32.7039	421.3614	-3.3903	177.7	20.9993	536.0609	-0.0592	0.0182	-0.0073	-0.0462	0.0165	0.9585
22.728	63.5528	569.3467	53.0067	-183.6993	-25.4931	521.6688	-45.7517	473.666	-10.7213	199.2021	35.8921	601.7382	-0.0592	0.0182	-0.0073	-0.0462	0.0165	0.9585
22.7394	58.3155	504.0419	45.5443	-162.6552	-20.479	460.4063	-55.8642	513.5976	-19.0434	215.2885	50.5519	650.8108	-0.0592	0.0182	-0.0073	-0.0462	0.0165	0.9585
22.7507	51.1345	432.6064	38.1147	-139.6458	-16.2456	394.2041	-62.5966	544.7668	-27.1756	227.5171	63.386	687.8619	-0.0592	0.0182	-0.0073	-0.0462	0.0165	0.9585
22.7621	42.3091	358.5351	31.146	-115.7653	-13.0381	326.1779	-66.1313	570.8853	-34.4731	237.4625	73.6836	717.727	-0.0592	0.0182	-0.0073	-0.0462	0.0165	0.9585
22.7734	32.4281	285.7037	24.9034	-92.2513	-10.8721	259.7338	-67.084	594.2996	-40.6049	246.1374	81.2843	743.537	-0.0592	0.0182	-0.0073	-0.0462	0.0165	0.9585
22.7848	22.3159	217.9595	19.5151	-70.3436	-9.5648	198.2371	-66.0507	616.282	-45.6519	254.0678	86.5593	767.0068	-0.0592	0.0182	-0.0073	-0.0462	0.0165	0.9585
22.7961	12.9647	158.3731	15.047	-51.0477	-8.8255	144.3043	-63.6243	637.3833	-50.1706	261.4529	90.4011	788.9847	-0.0592	0.0182	-0.0073	-0.0462	0.0165	0.9585
22.8075	5.1998	108.768	11.431	-34.9712	-8.3003	99.4762	-60.2611	657.4683	-54.4888	268.2273	93.4589	809.4267	-0.0592	0.0182	-0.0073	-0.0462	0.0165	0.9585
22.8189	-0.51935	69.5813	8.4963	-22.2794	-7.6732	64.0611	-56.4732	675.8188	-59.0447	274.0945	96.4527	827.643	-0.0592	0.0182	-0.0073	-0.0462	0.0165	0.9585
22.8302	-4.1156	40.2746	6.0805	-12.8074	-6.7726	37.5601	-52.7129	691.5413	-63.738	278.7361	99.526	842.6702	-0.0592	0.0182	-0.0073	-0.0462	0.0165	0.9585
22.8416	-5.7205	19.6587	4.0699	-6.1717	-5.5471	18.8706	-49.3425	704.1061	-68.5129	281.9855	102.774	853.9801	-0.0592	0.0182	-0.0073	-0.0462	0.0165	0.9585
22.8529	-5.8094	6.3224	2.4264	-1.9065	-4.127	6.7352	-46.4791	713.3379	-72.9189	283.8575	105.7899	861.3741	-0.0592	0.0182	-0.0073	-0.0462	0.0165	0.9585
22.8643	-5.0333	-1.259	1.2169	0.49228	-2.7946	-0.21611	-44.2035	719.3928	-76.6606	284.4931	108.2812	865.0598	-0.0592	0.0182	-0.0073	-0.0462	0.0165	0.9585
22.8756	-3.9127	-4.6985	0.43329	1.5521	-1.722	-3.3945	-42.4603	722.5898	-79.5201	284.1001	110.0001	865.3785	-0.0592	0.0182	-0.0073	-0.0462	0.0165	0.9585
22.887	-2.7599	-5.4324	-0.019298	1.7395	-0.93014	-4.1117	-41.2038	723.4426	-81.3851	282.9492	110.8254	862.9081	-0.0592	0.0182	-0.0073	-0.0462	0.0165	0.9585
22.8984	-1.7669	-4.6228	-0.22036	1.4334	-0.41462	-3.406	-40.328	722.6585	-82.3152	281.3745	110.805	858.4263	-0.0592	0.0182	-0.0073	-0.0462	0.0165	0.9585
22.9097	-0.98985	-3.1145	-0.26249	0.90937	-0.11438	-2.0639	-39.7309	721.0174	-82.374	279.7245	110.0054	852.7928	-0.0592	0.0182	-0.0073	-0.0462	0.0165	0.9585
